<?xml version="1.0" encoding="utf-8"?>
<svg data-v-423bf9ae="" viewBox="0 0 427 109" class="iconLeft" xmlns="http://www.w3.org/2000/svg">
  <g data-v-423bf9ae="" id="ec313431-aaa2-42e7-b6d3-a69c427a1338" fill="white" transform="matrix(4.467609727222167,0,0,4.467609727222167,127.42807427796015,6.878647702450756)">
    <path d="M4.40 14.35L4.72 12.70L3.51 12.70L4.82 6.23L6.02 6.23L6.36 4.58L1.90 4.58L1.58 6.23L2.79 6.23L1.48 12.70L0.28 12.70L-0.06 14.35ZM7.97 14.35L8.72 10.57C8.83 10.01 9.07 9.53 9.39 9.14C9.72 8.75 10.09 8.47 10.57 8.47C11.05 8.47 11.23 8.76 11.23 9.23C11.23 9.45 11.19 9.72 11.13 9.98L10.26 14.35L12.22 14.35L12.98 10.57C13.08 10.07 13.34 9.51 13.65 9.13C13.96 8.75 14.36 8.47 14.80 8.47C15.23 8.47 15.41 8.76 15.41 9.21C15.41 9.45 15.36 9.72 15.30 9.98L14.73 12.89C14.71 12.96 14.69 13.12 14.69 13.29C14.69 13.94 15.12 14.35 15.86 14.35L17.14 14.35L17.44 12.78L16.70 12.78L17.26 9.97C17.35 9.53 17.43 9.13 17.43 8.69C17.43 7.55 16.84 6.83 15.76 6.83C14.59 6.83 13.87 7.62 13.33 8.71L13.26 8.71C13.24 7.53 12.64 6.83 11.55 6.83C10.43 6.83 9.73 7.56 9.18 8.71L9.10 8.71L9.44 7.00L7.48 7.00L6.01 14.35ZM25.41 14.35L25.72 12.78L24.89 12.78L26.05 7.00L24.09 7.00L23.84 8.27L23.77 8.27C23.67 7.48 22.96 6.83 21.94 6.83C20.06 6.83 18.52 8.85 18.52 11.97C18.52 13.44 19.11 14.52 20.48 14.52C21.63 14.52 22.30 13.83 22.88 12.64L22.96 12.64L22.92 12.85C22.90 12.92 22.88 13.12 22.88 13.27C22.88 13.96 23.41 14.35 24.11 14.35ZM21.45 12.91C20.87 12.91 20.52 12.52 20.52 11.86C20.52 11.63 20.57 11.26 20.61 11.06L20.80 10.08C21.03 8.97 21.55 8.44 22.41 8.44C23.23 8.44 23.70 8.97 23.56 9.66L23.34 10.78C23.23 11.33 22.97 11.86 22.67 12.24C22.37 12.60 21.95 12.91 21.45 12.91ZM33.25 14.66C33.25 13.43 32.44 12.78 30.81 12.78L29.01 12.78C28.49 12.78 28.27 12.63 28.27 12.32C28.27 12.03 28.49 11.76 28.80 11.63C29.13 11.73 29.51 11.77 29.93 11.77C32.34 11.77 33.36 10.37 33.36 9.02C33.36 8.25 33.04 7.66 32.47 7.29L32.51 7.11L34.01 7.11L34.31 5.60L33.21 5.60C32.54 5.60 32.13 5.94 31.98 6.69L31.91 7.01C31.54 6.90 31.12 6.83 30.65 6.83C28.24 6.83 27.22 8.23 27.22 9.59C27.22 10.44 27.59 11.07 28.28 11.42L28.27 11.52C27.44 11.69 26.66 12.18 26.66 13.01C26.66 13.54 26.95 13.96 27.48 14.07L27.48 14.17C26.57 14.38 25.87 14.78 25.87 15.69C25.87 16.59 26.54 17.32 28.99 17.32C32.38 17.32 33.25 15.92 33.25 14.66ZM31.29 15.08C31.29 15.57 30.90 15.97 29.67 15.97L28.76 15.97C27.83 15.97 27.50 15.69 27.50 15.25C27.50 15.01 27.59 14.69 27.87 14.48L30.30 14.48C31.05 14.48 31.29 14.69 31.29 15.08ZM30.10 10.43C29.40 10.43 29.08 10.15 29.08 9.65C29.08 9.58 29.08 9.46 29.13 9.18C29.26 8.54 29.69 8.18 30.46 8.18C31.16 8.18 31.49 8.46 31.49 8.96C31.49 9.03 31.49 9.14 31.43 9.42C31.30 10.07 30.87 10.43 30.10 10.43ZM36.61 6.19C37.55 6.19 37.83 5.67 37.95 5.18C38.00 5.01 38.04 4.79 38.04 4.62C38.04 4.17 37.72 3.89 37.03 3.89C36.09 3.89 35.81 4.41 35.69 4.90C35.64 5.07 35.60 5.29 35.60 5.46C35.60 5.91 35.92 6.19 36.61 6.19ZM36.76 14.35L37.07 12.78L36.25 12.78L37.41 7.00L35.45 7.00L34.27 12.88C34.24 13.02 34.23 13.12 34.23 13.23C34.23 13.90 34.73 14.35 35.49 14.35ZM43.53 14.35L45.72 14.35L47.68 4.58L45.77 4.58L44.44 11.23L44.35 11.23L43.76 9.28L42.18 4.58L39.98 4.58L38.02 14.35L39.94 14.35L41.27 7.70L41.36 7.70L41.94 9.65ZM51.06 14.52C52.32 14.52 53.28 14.07 54.19 12.87L52.99 11.91C52.33 12.74 51.84 12.94 51.20 12.94C50.23 12.94 49.90 12.46 49.90 11.76C49.90 11.69 49.90 11.61 49.92 11.44C53.21 11.34 54.57 10.39 54.57 8.88C54.57 7.28 53.05 6.83 51.94 6.83C49.50 6.83 47.95 9.00 47.95 11.35C47.95 13.30 48.97 14.52 51.06 14.52ZM51.83 8.33C52.18 8.33 52.67 8.44 52.67 9.07C52.67 9.66 52.23 10.07 50.13 10.19L50.19 9.87C50.36 8.92 51.00 8.33 51.83 8.33ZM57.71 14.52C59.81 14.52 60.91 13.26 60.91 11.83C60.91 10.68 60.21 10.04 58.95 9.87L58.21 9.77C57.69 9.70 57.53 9.45 57.53 9.17C57.53 8.72 57.93 8.40 58.59 8.40C59.23 8.40 59.82 8.69 60.17 9.14L61.40 7.99C60.76 7.21 59.81 6.83 58.67 6.83C56.60 6.83 55.62 8.08 55.62 9.46C55.62 10.64 56.32 11.27 57.58 11.44L58.32 11.54C58.84 11.61 59.01 11.86 59.01 12.14C59.01 12.56 58.66 12.95 57.75 12.95C56.92 12.95 56.39 12.63 55.99 12.08L54.75 13.23C55.40 14.08 56.48 14.52 57.71 14.52ZM65.30 14.35L65.60 12.78L64.26 12.78L65.10 8.57L66.58 8.57L66.91 7.00L65.42 7.00L65.81 5.01L63.99 5.01L63.74 6.26C63.64 6.76 63.52 7.00 62.92 7.00L62.43 7.00L62.12 8.57L63.15 8.57L62.40 12.36C62.36 12.57 62.34 12.82 62.34 12.96C62.34 13.89 62.93 14.35 64.06 14.35Z"/>
  </g>
  <g data-v-423bf9ae="" id="41e562ef-065c-4c7a-92ec-b2b900ba93ba" transform="matrix(1.0980553521050347,0,0,1.0980553521050347,-0.7310309937132047,0.7423499671069749)" stroke="none" fill="white">
    <path d="M95.267 21.241a3.862 3.862 0 1 0 0-7.724 3.858 3.858 0 0 0-3.752 2.982l-19.04 3.862a6.584 6.584 0 0 0-4.693-3.498l-.3-8.391A4.413 4.413 0 0 0 65.75 0a4.414 4.414 0 0 0-4.414 4.414 4.405 4.405 0 0 0 3.396 4.283l.295 8.255a6.586 6.586 0 0 0-3.929 2.786L45.49 10.299c.073-.296.123-.602.123-.92a3.861 3.861 0 1 0-7.724 0 3.861 3.861 0 0 0 6.032 3.193l16.183 9.789c-.048.319-.08.644-.08.976 0 .963.212 1.875.583 2.699L36.021 50.564a6.556 6.556 0 0 0-4.165-1.486c-1.343 0-2.59.404-3.631 1.094L16.558 38.505a5.345 5.345 0 0 0 .985-3.088 5.379 5.379 0 1 0-5.379 5.379c.813 0 1.577-.194 2.268-.518l11.865 11.866a6.546 6.546 0 0 0-1.025 3.518c0 .497.06.979.164 1.444l-16.813 5.65a3.862 3.862 0 1 0-3.217 5.993 3.85 3.85 0 0 0 3.803-3.28l17.398-5.846a6.569 6.569 0 0 0 4.183 2.527l-.003 9.885a4.408 4.408 0 0 0 .964 8.714 4.414 4.414 0 0 0 4.414-4.413 4.405 4.405 0 0 0-2.62-4.025l.004-10.294a6.592 6.592 0 0 0 4.271-3.58l22.252 4.481c-.033.234-.072.465-.072.707a5.126 5.126 0 0 0 5.125 5.125c.374 0 .736-.045 1.087-.121l3.639 8.99c-1.05.836-1.737 2.107-1.737 3.555 0 .74.193 1.43.508 2.047l-7.385 7.743c-.033-.013-.062-.034-.097-.046a3.86 3.86 0 1 0-2.614 7.266 3.862 3.862 0 0 0 4.941-2.327 3.847 3.847 0 0 0-.189-3.035l7.281-7.637a4.5 4.5 0 0 0 2.105.538c1.195 0 2.273-.47 3.086-1.224l13.693 9.205a3.81 3.81 0 0 0-.228 1.261 3.861 3.861 0 1 0 3.86-3.862c-.668 0-1.289.186-1.838.486l-14.119-9.491a4.551 4.551 0 0 0-4.455-5.478c-.08 0-.153.019-.231.022l-3.754-9.337a5.1 5.1 0 0 0 1.571-3.682 5.126 5.126 0 0 0-5.125-5.125c-1.594 0-3.001.743-3.94 1.886l-22.749-4.652c0-.024.003-.047.003-.071 0-1.056-.254-2.05-.696-2.934l24.501-24.472a6.554 6.554 0 0 0 4.363 1.663 6.55 6.55 0 0 0 3.656-1.11l12.703 12.703a4.388 4.388 0 0 0-.391 1.797 4.414 4.414 0 1 0 4.414-4.414c-.787 0-1.516.223-2.154.584L72.183 26.826a6.548 6.548 0 0 0 1.008-3.49c0-.103-.011-.202-.016-.304L91.9 19.235c.658 1.191 1.911 2.006 3.367 2.006z" style="fill: rgb(13, 110, 253);"/>
  </g>
</svg>